<svg xmlns="http://www.w3.org/2000/svg" width="34" height="22" viewBox="0 0 34 22" fill="none"><path d="M33.0526 1.66586H0V0.569898C1.71178e-05 0.418757 0.0600653 0.273811 0.166938 0.166938C0.273811 0.0600652 0.418757 1.71178e-05 0.569899 0H32.4827C32.6339 1.71178e-05 32.7788 0.0600652 32.8857 0.166938C32.9926 0.273811 33.0526 0.418757 33.0526 0.569898L33.0526 1.66586ZM0 6.66313H33.0526V8.32892H0V6.66313ZM0 3.3314H33.0526V4.9972H0V3.3314ZM33.0526 11.6605H0.569899C0.418757 11.6605 0.273811 11.6005 0.166938 11.4936C0.0600653 11.3867 1.71178e-05 11.2418 0 11.0906L0 9.99466H33.0526V11.6605ZM0 16.6583H33.0526V18.3241H0V16.6583ZM32.4827 21.6552H0.569899C0.418757 21.6552 0.273811 21.5951 0.166938 21.4882C0.0600653 21.3814 1.71178e-05 21.2364 0 21.0853L0 19.9894H33.0526V21.0853C33.0526 21.2365 32.9925 21.3814 32.8856 21.4883C32.7787 21.5951 32.6338 21.6552 32.4827 21.6552ZM0 13.3266H33.0526V14.9924H0V13.3266Z" fill="#FF4B55"></path></svg>