<svg xmlns="http://www.w3.org/2000/svg" width="16" height="12" viewBox="0 0 16 12" fill="none"><path d="M14.8167 0H0.5699C0.418764 -9.69642e-10 0.273818 0.0600337 0.166943 0.166897C0.0600675 0.27376 1.712e-05 0.418699 0 0.569835L0 11.0905C1.71178e-05 11.2417 0.0600654 11.3866 0.166939 11.4935C0.273812 11.6003 0.418758 11.6604 0.5699 11.6604H14.8167C14.9679 11.6604 15.1128 11.6003 15.2197 11.4935C15.3266 11.3866 15.3866 11.2417 15.3866 11.0905V0.569835C15.3866 0.418699 15.3265 0.273769 15.2196 0.166912C15.1128 0.0600546 14.9678 1.71075e-05 14.8167 0Z" fill="#41479B"></path></svg>