<svg xmlns="http://www.w3.org/2000/svg" width="14" height="10" viewBox="0 0 14 10" fill="none"><path d="M0.680184 0.0367485L0.806327 0.415046L1.20509 0.41808C1.25673 0.418532 1.2781 0.484379 1.23659 0.515043L0.915813 0.751963L1.03615 1.13213C1.05177 1.18132 0.995669 1.22212 0.953643 1.19204L0.62925 0.960221L0.304856 1.19211C0.26283 1.22212 0.20686 1.18139 0.222354 1.1322L0.342686 0.752028L0.0219076 0.515108C-0.0196018 0.484379 0.00176617 0.418597 0.0534109 0.418145L0.452173 0.415111L0.578315 0.036813C0.594583 -0.0122495 0.663787 -0.0122495 0.680184 0.0367485ZM0.680184 2.01565L0.806327 2.39394L1.20509 2.39698C1.25673 2.39743 1.2781 2.46328 1.23659 2.49394L0.915813 2.73086L1.03615 3.11103C1.05177 3.16022 0.995669 3.20102 0.953643 3.17094L0.62925 2.93912L0.304856 3.171C0.26283 3.20102 0.20686 3.16029 0.222354 3.11109L0.342686 2.73093L0.0219076 2.49401C-0.0196018 2.46328 0.00176617 2.39749 0.0534109 2.39704L0.452173 2.39401L0.578315 2.01571C0.594583 1.96671 0.663787 1.96671 0.680184 2.01565ZM0.680184 3.99454L0.806327 4.37284L1.20509 4.37588C1.25673 4.37633 1.2781 4.44217 1.23659 4.47284L0.915813 4.70976L1.03615 5.08993C1.05177 5.13912 0.995669 5.17992 0.953643 5.14984L0.62925 4.91802L0.304856 5.1499C0.26283 5.17992 0.20686 5.13918 0.222354 5.08999L0.342686 4.70982L0.0219076 4.4729C-0.0196018 4.44217 0.00176617 4.37639 0.0534109 4.37594L0.452173 4.37291L0.578315 3.99461C0.594583 3.94561 0.663787 3.94561 0.680184 3.99454ZM0.680184 5.97351L0.806327 6.3518L1.20509 6.35484C1.25673 6.35529 1.2781 6.42114 1.23659 6.4518L0.915813 6.68872L1.03615 7.06889C1.05177 7.11808 0.995669 7.15888 0.953643 7.1288L0.62925 6.89698L0.304856 7.12886C0.26283 7.15888 0.20686 7.11815 0.222354 7.06895L0.342686 6.68878L0.0219076 6.45186C-0.0196018 6.42114 0.00176617 6.35535 0.0534109 6.3549L0.452173 6.35187L0.578315 5.97357C0.594583 5.92451 0.663787 5.92451 0.680184 5.97351ZM0.680184 7.9524L0.806327 8.3307L1.20509 8.33373C1.25673 8.33419 1.2781 8.40003 1.23659 8.4307L0.915813 8.66762L1.03615 9.04779C1.05177 9.09698 0.995669 9.13778 0.953643 9.1077L0.62925 8.87588L0.304856 9.10776C0.26283 9.13778 0.20686 9.09704 0.222354 9.04785L0.342686 8.66768L0.0219076 8.43076C-0.0196018 8.40003 0.00176617 8.33425 0.0534109 8.3338L0.452173 8.33077L0.578315 7.95247C0.594583 7.90334 0.663787 7.90334 0.680184 7.9524ZM2.21616 1.00696L2.34231 1.38526L2.74107 1.38829C2.79271 1.38874 2.81408 1.45459 2.77257 1.48525L2.45179 1.72217L2.57212 2.10234C2.58775 2.15154 2.53165 2.19234 2.48962 2.16225L2.16523 1.93037L1.84084 2.16225C1.79881 2.19227 1.74284 2.15154 1.75833 2.10234L1.87866 1.72217L1.55789 1.48525C1.51638 1.45453 1.53775 1.38874 1.58939 1.38829L1.98815 1.38526L2.11429 1.00696C2.1305 0.958026 2.19983 0.958026 2.21616 1.00696ZM2.21616 2.98592L2.34231 3.36422L2.74107 3.36725C2.79271 3.3677 2.81408 3.43355 2.77257 3.46422L2.45179 3.70114L2.57212 4.08131C2.58775 4.1305 2.53165 4.1713 2.48962 4.14121L2.16523 3.90933L1.84084 4.14121C1.79881 4.17123 1.74284 4.13056 1.75833 4.08131L1.87866 3.70114L1.55789 3.46422C1.51638 3.43349 1.53775 3.3677 1.58939 3.36725L1.98815 3.36422L2.11429 2.98592C2.1305 2.93692 2.19983 2.93692 2.21616 2.98592ZM2.21616 4.96482L2.34231 5.34312L2.74107 5.34615C2.79271 5.3466 2.81408 5.41245 2.77257 5.44311L2.45179 5.68003L2.57212 6.0602C2.58775 6.1094 2.53165 6.1502 2.48962 6.12011L2.16523 5.88823L1.84084 6.12011C1.79881 6.15013 1.74284 6.1094 1.75833 6.0602L1.87866 5.68003L1.55789 5.44311C1.51638 5.41239 1.53775 5.3466 1.58939 5.34615L1.98815 5.34312L2.11429 4.96482C2.1305 4.91582 2.19983 4.91582 2.21616 4.96482ZM2.21616 6.94372L2.34231 7.32201L2.74107 7.32505C2.79271 7.3255 2.81408 7.39135 2.77257 7.42201L2.45179 7.65893L2.57212 8.0391C2.58775 8.08829 2.53165 8.12909 2.48962 8.09901L2.16523 7.86712L1.84084 8.09901C1.79881 8.12903 1.74284 8.08829 1.75833 8.0391L1.87866 7.65893L1.55789 7.42201C1.51638 7.39128 1.53775 7.3255 1.58939 7.32505L1.98815 7.32201L2.11429 6.94372C2.1305 6.89478 2.19983 6.89478 2.21616 6.94372ZM3.75214 0.0367485L3.87828 0.415046L4.27705 0.41808C4.32869 0.418532 4.35006 0.484379 4.30855 0.515043L3.98777 0.751963L4.1081 1.13213C4.12373 1.18132 4.06763 1.22212 4.0256 1.19204L3.70121 0.960157L3.37681 1.19204C3.33479 1.22206 3.27882 1.18132 3.29431 1.13213L3.41464 0.751963L3.09387 0.515043C3.05236 0.484315 3.07372 0.418532 3.12537 0.41808L3.52413 0.415046L3.65027 0.0367485C3.66654 -0.0122495 3.73581 -0.0122495 3.75214 0.0367485ZM3.75214 2.01565L3.87828 2.39394L4.27705 2.39698C4.32869 2.39743 4.35006 2.46328 4.30855 2.49394L3.98777 2.73086L4.1081 3.11103C4.12373 3.16022 4.06763 3.20102 4.0256 3.17094L3.70121 2.93905L3.37681 3.17094C3.33479 3.20096 3.27882 3.16022 3.29431 3.11103L3.41464 2.73086L3.09387 2.49394C3.05236 2.46321 3.07372 2.39743 3.12537 2.39698L3.52413 2.39394L3.65027 2.01565C3.66654 1.96671 3.73581 1.96671 3.75214 2.01565ZM3.75214 3.99454L3.87828 4.37284L4.27705 4.37588C4.32869 4.37633 4.35006 4.44217 4.30855 4.47284L3.98777 4.70976L4.1081 5.08993C4.12373 5.13912 4.06763 5.17992 4.0256 5.14984L3.70121 4.91795L3.37681 5.14984C3.33479 5.17985 3.27882 5.13912 3.29431 5.08993L3.41464 4.70976L3.09387 4.47284C3.05236 4.44211 3.07372 4.37633 3.12537 4.37588L3.52413 4.37284L3.65027 3.99454C3.66654 3.94561 3.73581 3.94561 3.75214 3.99454ZM3.75214 5.97351L3.87828 6.3518L4.27705 6.35484C4.32869 6.35529 4.35006 6.42114 4.30855 6.4518L3.98777 6.68872L4.1081 7.06889C4.12373 7.11808 4.06763 7.15888 4.0256 7.1288L3.70121 6.89691L3.37681 7.1288C3.33479 7.15882 3.27882 7.11808 3.29431 7.06889L3.41464 6.68872L3.09387 6.4518C3.05236 6.42107 3.07372 6.35529 3.12537 6.35484L3.52413 6.3518L3.65027 5.97351C3.66654 5.92451 3.73581 5.92451 3.75214 5.97351ZM3.75214 7.9524L3.87828 8.3307L4.27705 8.33373C4.32869 8.33419 4.35006 8.40003 4.30855 8.4307L3.98777 8.66762L4.1081 9.04779C4.12373 9.09698 4.06763 9.13778 4.0256 9.1077L3.70121 8.87581L3.37681 9.1077C3.33479 9.13771 3.27882 9.09698 3.29431 9.04779L3.41464 8.66762L3.09387 8.4307C3.05236 8.39997 3.07372 8.33419 3.12537 8.33373L3.52413 8.3307L3.65027 7.9524C3.66654 7.90334 3.73581 7.90334 3.75214 7.9524ZM5.28819 1.00696L5.41433 1.38526L5.81309 1.38829C5.86474 1.38874 5.8861 1.45459 5.84459 1.48525L5.52382 1.72217L5.64415 2.10234C5.65977 2.15154 5.60367 2.19234 5.56165 2.16225L5.23725 1.93037L4.91286 2.16225C4.87083 2.19227 4.81486 2.15154 4.83036 2.10234L4.95069 1.72217L4.62991 1.48525C4.5884 1.45453 4.60977 1.38874 4.66141 1.38829L5.06017 1.38526L5.18632 1.00696C5.20252 0.958026 5.27185 0.958026 5.28819 1.00696ZM5.28819 2.98592L5.41433 3.36422L5.81309 3.36725C5.86474 3.3677 5.8861 3.43355 5.84459 3.46422L5.52382 3.70114L5.64415 4.08131C5.65977 4.1305 5.60367 4.1713 5.56165 4.14121L5.23725 3.90933L4.91286 4.14121C4.87083 4.17123 4.81486 4.13056 4.83036 4.08131L4.95069 3.70114L4.62991 3.46422C4.5884 3.43349 4.60977 3.3677 4.66141 3.36725L5.06017 3.36422L5.18632 2.98592C5.20252 2.93692 5.27185 2.93692 5.28819 2.98592ZM5.28819 4.96482L5.41433 5.34312L5.81309 5.34615C5.86474 5.3466 5.8861 5.41245 5.84459 5.44311L5.52382 5.68003L5.64415 6.0602C5.65977 6.1094 5.60367 6.1502 5.56165 6.12011L5.23725 5.88823L4.91286 6.12011C4.87083 6.15013 4.81486 6.1094 4.83036 6.0602L4.95069 5.68003L4.62991 5.44311C4.5884 5.41239 4.60977 5.3466 4.66141 5.34615L5.06017 5.34312L5.18632 4.96482C5.20252 4.91582 5.27185 4.91582 5.28819 4.96482ZM5.28819 6.94372L5.41433 7.32201L5.81309 7.32505C5.86474 7.3255 5.8861 7.39135 5.84459 7.42201L5.52382 7.65893L5.64415 8.0391C5.65977 8.08829 5.60367 8.12909 5.56165 8.09901L5.23725 7.86712L4.91286 8.09901C4.87083 8.12903 4.81486 8.08829 4.83036 8.0391L4.95069 7.65893L4.62991 7.42201C4.5884 7.39128 4.60977 7.3255 4.66141 7.32505L5.06017 7.32201L5.18632 6.94372C5.20252 6.89478 5.27185 6.89478 5.28819 6.94372ZM6.82416 0.0367485L6.95031 0.415046L7.34907 0.41808C7.40071 0.418532 7.42208 0.484379 7.38057 0.515043L7.05979 0.751963L7.18013 1.13213C7.19575 1.18132 7.13965 1.22212 7.09762 1.19204L6.77317 0.960157L6.44877 1.19204C6.40675 1.22206 6.35078 1.18132 6.36627 1.13213L6.4866 0.751963L6.16582 0.515043C6.12431 0.484315 6.14568 0.418532 6.19733 0.41808L6.59609 0.415046L6.72223 0.0367485C6.73856 -0.0122495 6.80783 -0.0122495 6.82416 0.0367485ZM6.82416 2.01565L6.95031 2.39394L7.34907 2.39698C7.40071 2.39743 7.42208 2.46328 7.38057 2.49394L7.05979 2.73086L7.18013 3.11103C7.19575 3.16022 7.13965 3.20102 7.09762 3.17094L6.77317 2.93905L6.44877 3.17094C6.40675 3.20096 6.35078 3.16022 6.36627 3.11103L6.4866 2.73086L6.16582 2.49394C6.12431 2.46321 6.14568 2.39743 6.19733 2.39698L6.59609 2.39394L6.72223 2.01565C6.73856 1.96671 6.80783 1.96671 6.82416 2.01565ZM6.82416 3.99454L6.95031 4.37284L7.34907 4.37588C7.40071 4.37633 7.42208 4.44217 7.38057 4.47284L7.05979 4.70976L7.18013 5.08993C7.19575 5.13912 7.13965 5.17992 7.09762 5.14984L6.77317 4.91795L6.44877 5.14984C6.40675 5.17985 6.35078 5.13912 6.36627 5.08993L6.4866 4.70976L6.16582 4.47284C6.12431 4.44211 6.14568 4.37633 6.19733 4.37588L6.59609 4.37284L6.72223 3.99454C6.73856 3.94561 6.80783 3.94561 6.82416 3.99454ZM6.82416 5.97351L6.95031 6.3518L7.34907 6.35484C7.40071 6.35529 7.42208 6.42114 7.38057 6.4518L7.05979 6.68872L7.18013 7.06889C7.19575 7.11808 7.13965 7.15888 7.09762 7.1288L6.77317 6.89691L6.44877 7.1288C6.40675 7.15882 6.35078 7.11808 6.36627 7.06889L6.4866 6.68872L6.16582 6.4518C6.12431 6.42107 6.14568 6.35529 6.19733 6.35484L6.59609 6.3518L6.72223 5.97351C6.73856 5.92451 6.80783 5.92451 6.82416 5.97351ZM6.82416 7.9524L6.95031 8.3307L7.34907 8.33373C7.40071 8.33419 7.42208 8.40003 7.38057 8.4307L7.05979 8.66762L7.18013 9.04779C7.19575 9.09698 7.13965 9.13778 7.09762 9.1077L6.77317 8.87581L6.44877 9.1077C6.40675 9.13771 6.35078 9.09698 6.36627 9.04779L6.4866 8.66762L6.16582 8.4307C6.12431 8.39997 6.14568 8.33419 6.19733 8.33373L6.59609 8.3307L6.72223 7.9524C6.73856 7.90334 6.80783 7.90334 6.82416 7.9524ZM8.36014 1.00696L8.48629 1.38526L8.88505 1.38829C8.93669 1.38874 8.95806 1.45459 8.91655 1.48525L8.59577 1.72217L8.71611 2.10234C8.73173 2.15154 8.67563 2.19234 8.6336 2.16225L8.30921 1.93037L7.98482 2.16225C7.94279 2.19227 7.88682 2.15154 7.90231 2.10234L8.02264 1.72217L7.70187 1.48525C7.66036 1.45453 7.68173 1.38874 7.73337 1.38829L8.13213 1.38526L8.25828 1.00696C8.27461 0.958026 8.34381 0.958026 8.36014 1.00696ZM8.36014 2.98592L8.48629 3.36422L8.88505 3.36725C8.93669 3.3677 8.95806 3.43355 8.91655 3.46422L8.59577 3.70114L8.71611 4.08131C8.73173 4.1305 8.67563 4.1713 8.6336 4.14121L8.30921 3.90933L7.98482 4.14121C7.94279 4.17123 7.88682 4.13056 7.90231 4.08131L8.02264 3.70114L7.70187 3.46422C7.66036 3.43349 7.68173 3.3677 7.73337 3.36725L8.13213 3.36422L8.25828 2.98592C8.27461 2.93692 8.34381 2.93692 8.36014 2.98592ZM8.36014 4.96482L8.48629 5.34312L8.88505 5.34615C8.93669 5.3466 8.95806 5.41245 8.91655 5.44311L8.59577 5.68003L8.71611 6.0602C8.73173 6.1094 8.67563 6.1502 8.6336 6.12011L8.30921 5.88823L7.98482 6.12011C7.94279 6.15013 7.88682 6.1094 7.90231 6.0602L8.02264 5.68003L7.70187 5.44311C7.66036 5.41239 7.68173 5.3466 7.73337 5.34615L8.13213 5.34312L8.25828 4.96482C8.27461 4.91582 8.34381 4.91582 8.36014 4.96482ZM8.36014 6.94372L8.48629 7.32201L8.88505 7.32505C8.93669 7.3255 8.95806 7.39135 8.91655 7.42201L8.59577 7.65893L8.71611 8.0391C8.73173 8.08829 8.67563 8.12909 8.6336 8.09901L8.30921 7.86712L7.98482 8.09901C7.94279 8.12903 7.88682 8.08829 7.90231 8.0391L8.02264 7.65893L7.70187 7.42201C7.66036 7.39128 7.68173 7.3255 7.73337 7.32505L8.13213 7.32201L8.25828 6.94372C8.27461 6.89478 8.34381 6.89478 8.36014 6.94372ZM9.89619 0.0367485L10.0223 0.415046L10.4211 0.41808C10.4727 0.418532 10.4941 0.484379 10.4526 0.515043L10.1318 0.751963L10.2521 1.13213C10.2678 1.18132 10.2117 1.22212 10.1696 1.19204L9.84525 0.960157L9.52086 1.19204C9.47883 1.22206 9.42286 1.18132 9.43836 1.13213L9.55869 0.751963L9.23791 0.515043C9.1964 0.484315 9.21777 0.418532 9.26941 0.41808L9.66818 0.415046L9.79432 0.0367485C9.81052 -0.0122495 9.87986 -0.0122495 9.89619 0.0367485ZM9.89619 2.01565L10.0223 2.39394L10.4211 2.39698C10.4727 2.39743 10.4941 2.46328 10.4526 2.49394L10.1318 2.73086L10.2521 3.11103C10.2678 3.16022 10.2117 3.20102 10.1696 3.17094L9.84525 2.93905L9.52086 3.17094C9.47883 3.20096 9.42286 3.16022 9.43836 3.11103L9.55869 2.73086L9.23791 2.49394C9.1964 2.46321 9.21777 2.39743 9.26941 2.39698L9.66818 2.39394L9.79432 2.01565C9.81052 1.96671 9.87986 1.96671 9.89619 2.01565ZM9.89619 3.99454L10.0223 4.37284L10.4211 4.37588C10.4727 4.37633 10.4941 4.44217 10.4526 4.47284L10.1318 4.70976L10.2521 5.08993C10.2678 5.13912 10.2117 5.17992 10.1696 5.14984L9.84525 4.91795L9.52086 5.14984C9.47883 5.17985 9.42286 5.13912 9.43836 5.08993L9.55869 4.70976L9.23791 4.47284C9.1964 4.44211 9.21777 4.37633 9.26941 4.37588L9.66818 4.37284L9.79432 3.99454C9.81052 3.94561 9.87986 3.94561 9.89619 3.99454ZM9.89619 5.97351L10.0223 6.3518L10.4211 6.35484C10.4727 6.35529 10.4941 6.42114 10.4526 6.4518L10.1318 6.68872L10.2521 7.06889C10.2678 7.11808 10.2117 7.15888 10.1696 7.1288L9.84525 6.89691L9.52086 7.1288C9.47883 7.15882 9.42286 7.11808 9.43836 7.06889L9.55869 6.68872L9.23791 6.4518C9.1964 6.42107 9.21777 6.35529 9.26941 6.35484L9.66818 6.3518L9.79432 5.97351C9.81052 5.92451 9.87986 5.92451 9.89619 5.97351ZM9.89619 7.9524L10.0223 8.3307L10.4211 8.33373C10.4727 8.33419 10.4941 8.40003 10.4526 8.4307L10.1318 8.66762L10.2521 9.04779C10.2678 9.09698 10.2117 9.13778 10.1696 9.1077L9.84525 8.87581L9.52086 9.1077C9.47883 9.13771 9.42286 9.09698 9.43836 9.04779L9.55869 8.66762L9.23791 8.4307C9.1964 8.39997 9.21777 8.33419 9.26941 8.33373L9.66818 8.3307L9.79432 7.9524C9.81052 7.90334 9.87986 7.90334 9.89619 7.9524ZM11.4322 1.00696L11.5583 1.38526L11.9571 1.38829C12.0087 1.38874 12.0301 1.45459 11.9886 1.48525L11.6678 1.72217L11.7881 2.10234C11.8038 2.15154 11.7477 2.19234 11.7056 2.16225L11.3812 1.93037L11.0568 2.16225C11.0148 2.19227 10.9588 2.15154 10.9743 2.10234L11.0947 1.72217L10.7739 1.48525C10.7324 1.45453 10.7537 1.38874 10.8054 1.38829L11.2042 1.38526L11.3303 1.00696C11.3466 0.958026 11.4159 0.958026 11.4322 1.00696ZM11.4322 2.98592L11.5583 3.36422L11.9571 3.36725C12.0087 3.3677 12.0301 3.43355 11.9886 3.46422L11.6678 3.70114L11.7881 4.08131C11.8038 4.1305 11.7477 4.1713 11.7056 4.14121L11.3812 3.90933L11.0568 4.14121C11.0148 4.17123 10.9588 4.13056 10.9743 4.08131L11.0947 3.70114L10.7739 3.46422C10.7324 3.43349 10.7537 3.3677 10.8054 3.36725L11.2042 3.36422L11.3303 2.98592C11.3466 2.93692 11.4159 2.93692 11.4322 2.98592ZM11.4322 4.96482L11.5583 5.34312L11.9571 5.34615C12.0087 5.3466 12.0301 5.41245 11.9886 5.44311L11.6678 5.68003L11.7881 6.0602C11.8038 6.1094 11.7477 6.1502 11.7056 6.12011L11.3812 5.88823L11.0568 6.12011C11.0148 6.15013 10.9588 6.1094 10.9743 6.0602L11.0947 5.68003L10.7739 5.44311C10.7324 5.41239 10.7537 5.3466 10.8054 5.34615L11.2042 5.34312L11.3303 4.96482C11.3466 4.91582 11.4159 4.91582 11.4322 4.96482ZM11.4322 6.94372L11.5583 7.32201L11.9571 7.32505C12.0087 7.3255 12.0301 7.39135 11.9886 7.42201L11.6678 7.65893L11.7881 8.0391C11.8038 8.08829 11.7477 8.12909 11.7056 8.09901L11.3812 7.86712L11.0568 8.09901C11.0148 8.12903 10.9588 8.08829 10.9743 8.0391L11.0947 7.65893L10.7739 7.42201C10.7324 7.39128 10.7537 7.3255 10.8054 7.32505L11.2042 7.32201L11.3303 6.94372C11.3466 6.89478 11.4159 6.89478 11.4322 6.94372ZM12.9682 0.0367485L13.0944 0.415046L13.4931 0.41808C13.5448 0.418532 13.5661 0.484379 13.5246 0.515043L13.2038 0.751963L13.3242 1.13213C13.3398 1.18132 13.2837 1.22212 13.2417 1.19204L12.9173 0.960157L12.5929 1.19204C12.5509 1.22206 12.4949 1.18132 12.5104 1.13213L12.6307 0.751963L12.3099 0.515043C12.2684 0.484315 12.2898 0.418532 12.3414 0.41808L12.7402 0.415046L12.8663 0.0367485C12.8826 -0.0122495 12.9518 -0.0122495 12.9682 0.0367485ZM12.9682 2.01565L13.0944 2.39394L13.4931 2.39698C13.5448 2.39743 13.5661 2.46328 13.5246 2.49394L13.2038 2.73086L13.3242 3.11103C13.3398 3.16022 13.2837 3.20102 13.2417 3.17094L12.9173 2.93905L12.5929 3.17094C12.5509 3.20096 12.4949 3.16022 12.5104 3.11103L12.6307 2.73086L12.3099 2.49394C12.2684 2.46321 12.2898 2.39743 12.3414 2.39698L12.7402 2.39394L12.8663 2.01565C12.8826 1.96671 12.9518 1.96671 12.9682 2.01565ZM12.9682 3.99454L13.0944 4.37284L13.4931 4.37588C13.5448 4.37633 13.5661 4.44217 13.5246 4.47284L13.2038 4.70976L13.3242 5.08993C13.3398 5.13912 13.2837 5.17992 13.2417 5.14984L12.9173 4.91795L12.5929 5.14984C12.5509 5.17985 12.4949 5.13912 12.5104 5.08993L12.6307 4.70976L12.3099 4.47284C12.2684 4.44211 12.2898 4.37633 12.3414 4.37588L12.7402 4.37284L12.8663 3.99454C12.8826 3.94561 12.9518 3.94561 12.9682 3.99454ZM12.9682 5.97351L13.0944 6.3518L13.4931 6.35484C13.5448 6.35529 13.5661 6.42114 13.5246 6.4518L13.2038 6.68872L13.3242 7.06889C13.3398 7.11808 13.2837 7.15888 13.2417 7.1288L12.9173 6.89691L12.5929 7.1288C12.5509 7.15882 12.4949 7.11808 12.5104 7.06889L12.6307 6.68872L12.3099 6.4518C12.2684 6.42107 12.2898 6.35529 12.3414 6.35484L12.7402 6.3518L12.8663 5.97351C12.8826 5.92451 12.9518 5.92451 12.9682 5.97351ZM12.9682 7.9524L13.0944 8.3307L13.4931 8.33373C13.5448 8.33419 13.5661 8.40003 13.5246 8.4307L13.2038 8.66762L13.3242 9.04779C13.3398 9.09698 13.2837 9.13778 13.2417 9.1077L12.9173 8.87581L12.5929 9.1077C12.5509 9.13771 12.4949 9.09698 12.5104 9.04779L12.6307 8.66762L12.3099 8.4307C12.2684 8.39997 12.2898 8.33419 12.3414 8.33373L12.7402 8.3307L12.8663 7.9524C12.8826 7.90334 12.9518 7.90334 12.9682 7.9524Z" fill="#F5F5F5"></path></svg>