<svg xmlns="http://www.w3.org/2000/svg" width="127" height="183" viewBox="0 0 127 183" fill="none"><path opacity="0.14" d="M66.2008 103.849C61.2634 102.577 56.4929 100.644 52.0596 98.1198C47.6848 95.5542 43.6649 92.4934 40.1154 89.0253C36.5894 85.6833 33.4821 82.0159 30.8608 78.1027C28.2215 74.2006 26.3235 69.9878 25.2534 65.6569C24.7239 63.4723 24.5443 61.2655 24.7202 59.1052C24.8697 56.8552 25.5785 54.7177 26.7961 52.8445C28.1831 50.7698 30.3631 49.2499 32.989 48.5267C35.7047 47.8517 38.6661 47.9045 41.5297 48.679C42.8714 49.0143 44.1922 49.4447 45.479 49.966C46.6956 50.4974 47.8871 51.0827 49.0488 51.7194C50.1675 52.3295 51.2485 53.0001 52.285 53.7268L53.9226 54.8097L55.3801 55.9252C59.0403 58.8189 62.415 61.9946 65.4566 65.4074C68.4844 68.7196 71.0169 72.3487 72.9788 76.1864C74.8361 79.8275 76.1193 83.6328 76.7883 87.4834L77.0502 88.8719L77.1687 90.2546C77.254 91.1613 77.3445 92.1057 77.4004 92.9825C77.4716 94.7585 77.4395 96.5264 77.3043 98.2791C77.2201 99.2938 77.0761 100.302 76.9322 101.31C78.0016 101.394 78.9766 101.404 80.1182 101.465C84.3122 101.538 88.4353 101.105 92.3765 100.176C96.1313 99.2423 99.64 97.7829 102.781 95.8481C108.634 91.9744 113.274 86.8596 116.353 80.8879C119.233 75.2899 121.177 69.2708 122.128 63.0044C123.021 57.2707 123.383 51.4296 123.211 45.5383C123.122 40.3785 122.646 35.1914 121.787 30.0115C120.572 22.4158 117.987 14.9115 114.138 7.79619C111.268 2.7202 108.983 0.0723649 109.325 -0.000226119C110.025 0.507693 110.637 1.10823 111.136 1.77634C112.692 3.57001 114.104 5.45326 115.359 7.40943C119.755 14.5148 122.782 22.1261 124.296 29.8876C125.39 35.1783 126.08 40.4899 126.359 45.7843C126.735 51.846 126.556 57.8698 125.823 63.7955C125.018 70.3944 123.152 76.7531 120.281 82.682C117.125 89.2308 112.232 94.8685 105.982 99.1572C102.519 101.396 98.6272 103.1 94.4452 104.211C90.0586 105.325 85.4523 105.872 80.7568 105.836C79.1417 105.844 77.5171 105.769 75.8909 105.613C74.9591 109.387 73.6373 113.04 71.9415 116.528C67.337 125.764 61.1482 134.186 53.5753 141.521C48.1338 146.876 42.1666 151.779 35.7316 156.182C28.6501 161.115 20.906 165.288 12.6333 168.628L9.99575 169.57L12.824 169.987C15.8599 170.507 18.7797 171.157 21.556 171.801C26.457 173.001 31.2896 174.525 36.0115 176.362C44.0911 179.508 48.6167 182.331 48.3558 182.863C48.0948 183.396 43.1176 181.722 35.1714 179.467C31.1649 178.369 26.4135 177.108 21.1021 176.043C18.4317 175.496 15.6409 174.988 12.7592 174.55C11.3031 174.342 9.82929 174.127 8.3429 173.942C7.59081 173.846 6.92153 173.802 5.81842 173.597C4.37201 173.361 2.99916 172.715 1.90914 171.757C1.33771 171.233 0.880444 170.621 0.565719 169.959C0.327724 169.438 0.164503 168.899 0.0803049 168.355C-0.0210225 167.551 -0.0265296 166.75 0.0638648 165.964C0.164462 164.707 0.30068 163.465 0.406568 162.245C0.660239 159.806 0.936061 157.465 1.20996 155.23C1.82902 150.789 2.55789 146.891 3.27713 143.523C4.71178 136.998 6.17779 133.03 6.93423 133.217C7.69065 133.404 7.65468 137.693 7.2384 144.477L6.3769 156.342C6.20877 158.573 6.04078 160.905 5.87298 163.338C5.79117 164.55 5.69686 165.792 5.60252 167.034C5.59788 167.067 5.58506 167.098 5.56497 167.125C6.47834 166.576 7.80194 165.84 9.74617 164.861C17.2641 160.982 24.432 156.635 31.2035 151.847C37.2629 147.459 42.9106 142.65 48.103 137.456C55.2336 130.428 61.081 122.406 65.4668 113.633C66.8712 110.71 68.0046 107.667 68.8567 104.533C67.9568 104.34 67.0569 104.148 66.1695 103.925L66.2008 103.849ZM70.2706 96.8436C70.4156 95.2948 70.468 93.7311 70.4274 92.1589C70.3937 91.3802 70.3065 90.5795 70.2434 89.7709L70.1336 88.5696L69.9044 87.3546C69.371 84.0437 68.2889 80.7683 66.6944 77.6384C65.0254 74.3183 62.8605 71.1757 60.2648 68.3049C57.5687 65.2165 54.5647 62.342 51.2967 59.7236L50.052 58.749L48.7697 57.8657C47.9273 57.2782 47.0545 56.729 46.1552 56.2207C45.2735 55.6801 44.4299 55.3508 43.4458 54.8569C42.5633 54.4913 41.6562 54.1894 40.734 53.9546C39.1756 53.4196 37.5194 53.3434 36.0233 53.738C34.5272 54.1326 33.2752 54.9758 32.462 56.1362C30.8654 58.976 30.4913 62.3371 31.404 65.644C32.2821 69.3494 33.8625 72.9609 36.0743 76.3168C38.3955 79.8544 41.1554 83.1756 44.2947 86.2092C47.3753 89.3076 50.8822 92.0498 54.7125 94.3554C58.5776 96.586 62.7429 98.2998 67.0586 99.4352C67.9932 99.6952 68.9403 99.9249 69.8759 100.132C70.0574 99.0326 70.2148 97.9412 70.3438 96.767" fill="#FC9536"></path></svg>